<?xml version="1.0" encoding="utf-8"?>
<!-- Generator: Adobe Illustrator 28.1.0, SVG Export Plug-In . SVG Version: 6.00 Build 0)  -->
<svg version="1.1" id="Calque_1" xmlns="http://www.w3.org/2000/svg" xmlns:xlink="http://www.w3.org/1999/xlink" x="0px" y="0px"
	 viewBox="0 0 2426.5 589.2" style="enable-background:new 0 0 2426.5 589.2;" xml:space="preserve">
<style type="text/css">
	.st0{fill-rule:evenodd;clip-rule:evenodd;fill:#FFFFFF;fill-opacity:0;}
	.st1{fill-rule:evenodd;clip-rule:evenodd;fill:#33348E;}
	.st2{fill-rule:evenodd;clip-rule:evenodd;fill:#FFFFFF;}
</style>
<g>
	<path class="st0" d="M-36.8-955.9h2500v2500h-2500V-955.9z"/>
	<path class="st1" d="M0,494.4c47.4,0,85.8,38.4,85.8,85.8c0,0,0,0,0,0h2254.8c0-47.4,38.4-85.8,85.8-85.8c0,0,0,0,0,0V93.8
		c-47.4,0-85.8-38.4-85.8-85.8c0,0,0,0,0,0H85.8c0,47.4-38.4,85.8-85.8,85.8V494.4z"/>
	<path class="st2" d="M104.2,559.9h2218.1c8.5-43.4,40.5-75.4,83.9-83.9V112.1c-43.4-8.5-75.4-40.5-83.9-83.9H104.2
		c-8.5,43.4-40.4,75.4-83.9,83.9v364C63.7,484.5,95.7,516.5,104.2,559.9L104.2,559.9z M130.8,523.7c-14.7-34.9-39.4-59.6-74.3-74.3
		V138.8c34.9-14.7,59.6-39.4,74.3-74.3h2164.8c14.7,34.9,39.4,59.6,74.3,74.3v310.7c-34.9,14.7-59.6,39.4-74.3,74.3L130.8,523.7
		L130.8,523.7z"/>
	<path class="st2" d="M1485,407.6l-126.3-258.8h-114.7l-113.1,258.8h-24.7v40h97.3v-40h-27.2l22.7-46.9l130.4-0.4l21,47.3h-21.9v40
		H1508v-40L1485,407.6L1485,407.6L1485,407.6z M1213.3,319.7l50.2-113.7l50.8,113.7H1213.3z M2264.8,236
		c-15.5-33.7-36.6-49.7-57-61.3c-32.7-18.6-67.6-25.5-89.4-25.5l-182,0v41.1h32.2l-0.8,217h-29V448h185.5c20,0,62.3-11.8,83.9-24.2
		c38.1-21.8,57.8-56.9,67.1-90.1C2286.5,293.5,2277.2,262.9,2264.8,236L2264.8,236z M2158.3,360.4c-12.5,29.6-31.3,43.9-46.6,46.7
		c-0.2,0-32.2,0-32.2,0V190.2l20.6,0.4c11.8,0.2,26.9,3.5,44.1,24.4c11.7,14.2,22.9,35.5,25.9,67.6
		C2172.4,305.5,2169.6,333.6,2158.3,360.4L2158.3,360.4z M515.8,407.4c-9.7-5.4-24.7-18.6-29.8-24.4c-5.5-6.3-10.1-17.3-24.6-28.3
		c-13-9.8-31.3-17.8-31.6-17.8c0.3-0.1,28.9-9.2,43.7-22.9c20.4-18.8,25.7-32.9,29.3-47.8c11.8-48.4-8.4-81.3-34-100.3
		c-20.2-14.9-34.7-16.8-34.5-16.8H160.7v41.5h34v216.7h-34v40.2h174.4v-40.2h-28.5v-63c0-0.2,3.7-4,11.4-4.8
		c13.6-1.3,32.5,7.3,41,22.1c3.9,6.9,5.9,17.3,14.2,34.2c7.2,14.5,10.6,26.1,27.4,38c18.2,12.9,33.7,13.7,34,13.7h99v-40.9
		C533.6,406.6,515.9,407.4,515.8,407.4L515.8,407.4z M371.7,283c-11.9,12-27.7,18-39,18h-24.7V189.4c0,0,24.7,0.1,30.5,0.1
		c19.8,0.1,43.6,15.4,48.7,48.3C389.4,252.5,386.2,268.3,371.7,283L371.7,283z M1886.5,408c-9.7-5.4-24.6-18.6-29.8-24.4
		c-5.5-6.3-10.1-17.3-24.6-28.3c-13-9.8-31.3-17.8-31.6-17.8c0.4-0.1,28.9-9.2,43.7-22.9c20.4-18.8,25.7-32.9,29.3-47.8
		c11.8-48.4-8.4-81.3-34-100.3c-20.2-14.9-34.7-16.8-34.4-16.8h-273.7v41.5h34V408h-34v40.2h174.4V408h-28.5v-63
		c0-0.2,3.7-4,11.4-4.8c13.7-1.3,32.6,7.3,41,22.1c4,6.9,5.9,17.3,14.2,34.2c7.2,14.5,10.6,26.1,27.4,38
		c18.2,12.9,33.7,13.7,33.9,13.7h99v-40.9C1904.2,407.2,1886.5,408,1886.5,408L1886.5,408z M1742.3,283.6c-11.9,12-27.7,18-39,18
		h-24.7V190c0,0,24.7,0.1,30.5,0.1c19.8,0.1,43.6,15.4,48.7,48.3C1760,253,1756.8,268.9,1742.3,283.6z M2293.1,173.7
		c-0.2-1.1-0.4-2.2-0.4-3.3c-0.1-0.6-0.1-1.1-0.2-1.7c-0.1,0-0.1-0.1-0.1-0.1v-0.3c-0.2-2.6-0.7-5.1-1.5-7.6c-0.4-1.2-1-2-2-2.7
		c-1-0.6-2.2-1-3.8-1c1-0.2,2-0.5,2.9-1c0.9-0.4,1.7-1,2.5-1.7c0.8-0.7,1.4-1.7,1.7-2.7c0.4-1.3,0.6-2.6,0.6-3.9
		c0-1.6-0.3-3.3-0.9-4.8c-0.6-1.2-1.6-2.3-2.8-2.9c-2.5-1.3-5.3-1.9-8.2-2h-0.6c-0.1,0-0.1,0-0.2-0.1h-14.1v37h9V161l4.1,0.1
		c0.9,0,1.5,0.2,2.1,0.6c0.6,0.5,1,1.1,1.2,1.8c0.5,1.8,0.8,3.6,0.9,5.4v0.7c0,0.1,0,0.1,0.1,0.1v0.3l0.1,1.4
		c0.1,1.2,0.2,2.4,0.6,3.6h9.6L2293.1,173.7L2293.1,173.7z M2283.2,151.9c-0.2,0.5-0.6,0.9-1,1.2c-0.5,0.2-0.9,0.4-1.4,0.6
		c-0.5,0.2-1,0.2-1.5,0.3h-0.6c-0.1,0-0.1,0-0.2-0.1h-3.5v-8.1l3.7,0.1c0.7,0,1.3,0.1,1.9,0.3c0.6,0.2,1.1,0.4,1.6,0.7
		c0.5,0.3,0.8,0.8,1,1.3c0.2,0.6,0.4,1.2,0.4,1.8C2283.6,150.6,2283.4,151.2,2283.2,151.9L2283.2,151.9z"/>
	<path class="st2" d="M2278.6,122.3c-18.8,0-34,15.2-34,34c0,18.8,15.2,34,34,34c18.8,0,34-15.2,34-34
		C2312.7,137.5,2297.4,122.3,2278.6,122.3z M2278.6,186c-16.4,0-29.6-13.3-29.6-29.6s13.3-29.6,29.6-29.6c0,0,0,0,0,0
		c16.4,0,29.6,13.3,29.6,29.6C2308.3,172.7,2295,186,2278.6,186z M738.8,149.5H564.9v41h33.4v216.9h-33.4v40.2l173.8,0.4v-40.2
		h-27.8V190.5h27.8V149.5z M1065.2,177.6c0-0.3-31.5-24.1-65-34.3c-31.7-9.7-56-8-77.1-5c-40.1,5.8-75.2,30.3-95,52.2
		c-27.9,30.7-38.8,66.9-41.2,95.7c-3.2,37.5,6.4,81.7,39.4,119.8c24.5,28.4,62.2,54.7,120.8,55.4c33.6,0.4,74.8-5.6,107.6-24
		c36.9-20.7,48.3-55.9,49-55.5l-26.2-17.6c0,0-41.6,48-86.2,45.6c-10.5-0.6-28.7-6-40.9-12.6c-22.5-12.2-34-32.2-42-51.8
		c-8.6-21.3-11.1-41.4-10.2-54.2c0.9-13.4,7.8-37.1,16-52.9c14.2-27.5,31.9-38.2,48.9-45c29-11.6,55.6-5.4,74.9,5.3
		c28.4,15.9,41.2,41.9,41.5,41.7l28.1-17.6l-14.3-73.7h-28.2L1065.2,177.6L1065.2,177.6L1065.2,177.6z"/>
</g>
</svg>
